<?xml version="1.0" encoding="UTF-8" standalone="no"?>
<svg width="105px" height="35px" viewBox="0 0 105 35" version="1.1" xmlns="http://www.w3.org/2000/svg" xmlns:xlink="http://www.w3.org/1999/xlink" xmlns:sketch="http://www.bohemiancoding.com/sketch/ns">
    <!-- Generator: Sketch 3.4.2 (15855) - http://www.bohemiancoding.com/sketch -->
    <title>title</title>
    <desc>Created with Sketch.</desc>
    <defs></defs>
    <g id="home" stroke="none" stroke-width="1" fill="none" fill-rule="evenodd" sketch:type="MSPage">
        <g id="home-mobile-portrait" sketch:type="MSArtboardGroup" transform="translate(-26.000000, -15.000000)" fill-opacity="0.801036005" fill="#000000">
            <g id="header" sketch:type="MSLayerGroup">
                <g id="title" transform="translate(26.000000, 15.000000)" sketch:type="MSShapeGroup">
                    <path d="M10.53,22.65 L7.416,22.65 L7.416,21.48 L10.53,21.48 L10.53,22.65 Z M16.29,17.466 L1.854,17.466 L1.854,25.566 L3.942,25.566 L3.942,19.248 L14.13,19.248 L14.13,23.262 C14.13,23.478 14.058,23.532 13.788,23.55 C13.59,23.568 13.032,23.568 12.42,23.55 L12.42,20.058 L5.544,20.058 L5.544,24.9 L7.416,24.9 L7.416,24.09 L12.06,24.09 C12.258,24.558 12.42,25.116 12.474,25.53 C13.77,25.53 14.724,25.512 15.39,25.188 C16.092,24.864 16.29,24.288 16.29,23.298 L16.29,17.466 Z M11.736,15.27 L6.12,15.27 L6.12,14.172 L11.736,14.172 L11.736,15.27 Z M4.086,12.75 L4.086,16.71 L13.914,16.71 L13.914,12.75 L4.086,12.75 Z M9.972,10.248 L9.972,8.736 L7.794,8.736 L7.794,10.248 L1.134,10.248 L1.134,12.066 L16.866,12.066 L16.866,10.248 L9.972,10.248 Z M31.7470001,22.11 L31.7470001,18.114 L36.0670001,18.114 L36.0670001,22.11 L31.7470001,22.11 Z M25.4290001,18.114 L29.5690001,18.114 L29.5690001,22.11 L25.4290001,22.11 L25.4290001,18.114 Z M29.5690001,12.012 L29.5690001,15.972 L25.4290001,15.972 L25.4290001,12.012 L29.5690001,12.012 Z M36.0670001,15.972 L31.7470001,15.972 L31.7470001,12.012 L36.0670001,12.012 L36.0670001,15.972 Z M23.2870001,9.942 L23.2870001,25.368 L25.4290001,25.368 L25.4290001,24.27 L36.0670001,24.27 L36.0670001,25.368 L38.2990001,25.368 L38.2990001,9.942 L23.2870001,9.942 Z M48.8600002,21.516 L47.2400002,21.516 L47.2400002,17.016 L48.8600002,17.016 L48.8600002,21.516 Z M50.9120002,11.544 L50.9120002,9.6 L44.3780002,9.6 L44.3780002,11.544 L46.2860002,11.544 C45.8360002,13.902 45.0980002,16.08 44.0000002,17.556 C44.2880002,18.168 44.6480002,19.536 44.7200002,20.112 C44.9720002,19.806 45.2240002,19.464 45.4580002,19.122 L45.4580002,24.72 L47.2400002,24.72 L47.2400002,23.406 L50.6780002,23.406 L50.6780002,15.126 L47.3120002,15.126 C47.7080002,13.974 48.0320002,12.75 48.2660002,11.544 L50.9120002,11.544 Z M55.0160002,16.08 L55.0160002,11.634 L57.0320002,11.634 L57.0320002,16.08 L55.0160002,16.08 Z M60.9560002,16.08 L59.0660002,16.08 L59.0660002,11.634 L60.5960002,11.634 L60.5960002,9.654 L51.7760002,9.654 L51.7760002,11.634 L53.0180002,11.634 L53.0180002,16.08 L51.3080002,16.08 L51.3080002,18.096 L52.9820002,18.096 C52.8740002,20.292 52.4240002,22.794 50.8760002,24.468 C51.3620002,24.738 52.1360002,25.332 52.4960002,25.71 C54.3500002,23.748 54.8720002,20.742 54.9800002,18.096 L57.0320002,18.096 L57.0320002,25.584 L59.0660002,25.584 L59.0660002,18.096 L60.9560002,18.096 L60.9560002,16.08 Z M75.2790003,12.21 L75.2790003,14.658 C75.2790003,16.458 75.7110003,17.052 77.6730003,17.052 L79.6890003,17.052 C81.1110003,17.052 81.6690003,16.548 81.9030003,14.676 C81.3270003,14.55 80.4450003,14.226 80.0490003,13.938 C79.9770003,15 79.8870003,15.162 79.4550003,15.162 L78.0150003,15.162 C77.4750003,15.162 77.4030003,15.108 77.4030003,14.622 L77.4030003,12.21 L79.9410003,12.21 L79.9410003,13.812 L82.1910003,13.812 L82.1910003,10.302 L75.4590003,10.302 L75.4590003,8.754 L73.2630003,8.754 L73.2630003,10.302 L66.6390003,10.302 L66.6390003,13.974 L68.7990003,13.974 L68.7990003,12.21 L71.0310003,12.21 C70.7610003,14.118 70.0230003,15.234 66.2970003,15.846 C66.6930003,16.242 67.2150003,17.034 67.3950003,17.574 C71.8770003,16.692 72.9030003,14.982 73.2990003,12.21 L75.2790003,12.21 Z M79.3470003,23.334 C78.9690003,23.334 78.8970003,23.262 78.8970003,22.704 L78.8970003,18.222 L74.2530003,18.222 L74.2530003,16.242 L72.0930003,16.242 L72.0930003,18.222 L67.3770003,18.222 L67.3770003,20.202 L71.8050003,20.202 C71.2470003,21.57 69.7710003,22.956 66.0270003,23.892 C66.4770003,24.36 67.1430003,25.116 67.4490003,25.656 C72.1290003,24.45 73.6590003,22.29 74.1090003,20.202 L76.6470003,20.202 L76.6470003,22.722 C76.6470003,24.828 77.1870003,25.44 78.9510003,25.44 L80.5710003,25.44 C82.1190003,25.44 82.6770003,24.648 82.8750003,21.678 C82.2990003,21.516 81.2910003,21.156 80.8590003,20.778 C80.7870003,23.028 80.7150003,23.334 80.3370003,23.334 L79.3470003,23.334 Z M99.0160004,14.964 L97.8640004,15.738 C98.1880004,15.972 98.5300004,16.242 98.8720004,16.53 L94.2460004,16.62 C94.5700004,16.098 94.9300004,15.522 95.2540004,14.964 L99.0160004,14.964 Z M101.842,11.868 L101.842,13.146 L90.3220004,13.146 L90.3220004,11.868 L101.842,11.868 Z M97.1440004,23.172 L97.1440004,21.786 L102.688,21.786 L102.688,19.95 L97.1440004,19.95 L97.1440004,18.384 L100.798,18.276 C101.14,18.636 101.446,18.978 101.68,19.284 L103.354,18.114 C102.598,17.196 101.086,15.918 99.7900004,14.964 L102.04,14.964 L102.04,13.668 L104.02,13.668 L104.02,9.924 L97.1440004,9.924 L97.1440004,8.772 L94.9480004,8.772 L94.9480004,9.924 L88.2340004,9.924 L88.2340004,13.668 L90.2140004,13.668 L90.2140004,14.964 L92.8060004,14.964 C92.5720004,15.522 92.2840004,16.116 92.0140004,16.656 L89.4580004,16.692 L89.5480004,18.6 C91.0420004,18.564 92.9320004,18.51 94.9480004,18.456 L94.9480004,19.95 L89.7820004,19.95 L89.7820004,21.786 L94.9480004,21.786 L94.9480004,23.172 L88.1800004,23.172 L88.1800004,25.062 L104.128,25.062 L104.128,23.172 L97.1440004,23.172 Z" id="高田研究室"></path>
                    <path d="M1.848,33.748 L2.373,34.189 C3.514,33.664 4.305,32.873 4.851,32.033 C5.362,31.242 5.642,30.367 5.81,29.534 C5.838,29.408 5.894,29.163 5.95,28.981 L5.25,28.883 C5.257,29.009 5.229,29.275 5.194,29.457 C5.082,30.108 4.858,30.941 4.319,31.739 C3.801,32.516 3.01,33.272 1.848,33.748 L1.848,33.748 Z M0.868,29.254 C1.204,29.716 1.778,30.745 2.037,31.27 L2.597,30.955 C2.345,30.5 1.729,29.422 1.421,28.967 L0.868,29.254 Z M12.6,29.072 C12.467,29.107 12.334,29.107 12.229,29.107 L8.715,29.107 C8.484,29.107 8.211,29.086 8.015,29.065 L8.015,29.681 C8.197,29.674 8.435,29.66 8.715,29.66 L12.292,29.66 C12.201,30.332 11.872,31.305 11.375,31.942 C10.787,32.691 10.003,33.286 8.645,33.629 L9.121,34.154 C10.409,33.748 11.242,33.097 11.879,32.278 C12.432,31.557 12.768,30.43 12.922,29.695 C12.95,29.562 12.978,29.443 13.027,29.345 L12.6,29.072 Z M19.929,31.606 C19.187,31.235 17.864,30.731 16.94,30.451 L16.94,29.31 C16.94,29.1 16.968,28.799 16.989,28.582 L16.303,28.582 C16.345,28.799 16.359,29.114 16.359,29.31 L16.359,33.384 C16.359,33.643 16.345,33.986 16.317,34.21 L16.989,34.21 C16.961,33.979 16.947,33.608 16.947,33.384 L16.94,31.074 C17.717,31.319 18.928,31.788 19.691,32.201 L19.929,31.606 Z M26.796,29.513 C26.705,29.548 26.572,29.569 26.313,29.569 L24.745,29.569 L24.745,28.918 C24.745,28.771 24.752,28.61 24.787,28.393 L24.115,28.393 C24.143,28.61 24.15,28.771 24.15,28.918 L24.15,29.569 L22.603,29.569 C22.358,29.569 22.155,29.562 21.952,29.541 C21.973,29.695 21.973,29.933 21.973,30.08 L21.973,31.312 C21.973,31.445 21.966,31.634 21.952,31.753 L22.561,31.753 C22.54,31.648 22.533,31.466 22.533,31.34 L22.533,30.087 L26.446,30.087 C26.383,30.689 26.159,31.536 25.781,32.131 C25.354,32.796 24.584,33.314 23.884,33.538 C23.66,33.622 23.394,33.699 23.156,33.734 L23.611,34.259 C24.892,33.909 25.858,33.195 26.383,32.271 C26.775,31.606 26.978,30.731 27.069,30.171 C27.097,30.038 27.139,29.856 27.174,29.751 L26.796,29.513 Z M31.766,33.496 L31.766,30.92 L33.131,30.92 C33.292,30.92 33.474,30.927 33.628,30.941 L33.628,30.381 C33.481,30.395 33.306,30.409 33.131,30.409 L29.911,30.409 C29.799,30.409 29.575,30.402 29.428,30.381 L29.428,30.941 C29.575,30.927 29.799,30.92 29.911,30.92 L31.199,30.92 L31.199,33.496 L29.589,33.496 C29.435,33.496 29.246,33.482 29.085,33.461 L29.085,34.049 C29.253,34.035 29.435,34.028 29.589,34.028 L33.46,34.028 C33.572,34.028 33.789,34.035 33.929,34.049 L33.929,33.461 C33.789,33.482 33.628,33.496 33.46,33.496 L31.766,33.496 Z M38.094,30.192 C38.115,30.374 38.122,30.528 38.122,30.696 C38.122,31.865 37.968,32.866 36.883,33.531 C36.687,33.664 36.449,33.776 36.26,33.839 L36.771,34.259 C38.556,33.37 38.724,32.089 38.724,30.192 L38.094,30.192 Z M41.174,28.939 C41.069,28.96 40.817,28.981 40.684,28.981 L36.666,28.981 C36.407,28.981 36.113,28.953 35.868,28.925 L35.868,29.555 C36.148,29.527 36.407,29.513 36.666,29.513 L40.649,29.513 C40.425,29.947 39.767,30.703 39.123,31.081 L39.585,31.452 C40.383,30.899 41.048,29.996 41.328,29.52 C41.377,29.443 41.468,29.338 41.517,29.268 L41.174,28.939 Z M45.304,32.243 L45.304,31.291 L46.354,31.291 L46.354,31.879 C46.354,31.998 46.347,32.124 46.34,32.243 L45.304,32.243 Z M47.915,31.291 L47.915,32.243 L46.809,32.243 C46.816,32.124 46.823,32.012 46.823,31.893 L46.823,31.291 L47.915,31.291 Z M45.451,29.786 C45.927,29.429 46.34,29.009 46.606,28.617 C46.893,29.016 47.341,29.443 47.81,29.786 L45.451,29.786 Z M48.391,32.67 L48.391,30.871 L46.823,30.871 L46.823,30.227 L47.943,30.227 L47.943,29.877 C48.146,30.017 48.349,30.143 48.545,30.248 C48.615,30.101 48.727,29.919 48.825,29.793 C48.09,29.471 47.313,28.848 46.816,28.155 L46.347,28.155 C46.004,28.75 45.332,29.373 44.611,29.758 L44.611,29.639 L43.855,29.639 L43.855,28.141 L43.365,28.141 L43.365,29.639 L42.385,29.639 L42.385,30.122 L43.323,30.122 C43.113,31.074 42.672,32.173 42.238,32.761 C42.322,32.88 42.448,33.083 42.511,33.216 C42.826,32.768 43.134,32.047 43.365,31.291 L43.365,34.525 L43.855,34.525 L43.855,31.249 C44.065,31.592 44.31,32.033 44.408,32.257 L44.695,31.844 C44.583,31.662 44.051,30.899 43.855,30.647 L43.855,30.122 L44.611,30.122 L44.611,30.08 C44.646,30.143 44.681,30.206 44.702,30.262 C44.905,30.157 45.101,30.031 45.29,29.898 L45.29,30.227 L46.354,30.227 L46.354,30.871 L44.842,30.871 L44.842,32.67 L46.249,32.67 C46.067,33.251 45.584,33.783 44.366,34.175 C44.457,34.259 44.604,34.455 44.646,34.567 C45.843,34.168 46.396,33.594 46.648,32.964 C47.061,33.839 47.642,34.245 48.475,34.567 C48.531,34.42 48.657,34.238 48.776,34.126 C47.971,33.853 47.411,33.51 47.012,32.67 L48.391,32.67 Z M51.576,28.386 L49.665,28.386 L49.665,28.806 L51.576,28.806 L51.576,28.386 Z M51.821,29.317 L49.294,29.317 L49.294,29.744 L51.821,29.744 L51.821,29.317 Z M51.583,30.283 L49.623,30.283 L49.623,30.696 L51.583,30.696 L51.583,30.283 Z M49.623,31.648 L51.583,31.648 L51.583,31.235 L49.623,31.235 L49.623,31.648 Z M51.156,32.614 L51.156,33.776 L50.064,33.776 L50.064,32.614 L51.156,32.614 Z M51.611,32.187 L49.609,32.187 L49.609,34.525 L50.064,34.525 L50.064,34.21 L51.611,34.21 L51.611,32.187 Z M54.18,33.797 L54.18,31.473 L55.566,31.473 L55.566,30.983 L54.18,30.983 L54.18,29.058 L55.608,29.058 L55.608,28.575 L52.052,28.575 L52.052,29.058 L53.676,29.058 L53.676,33.797 L52.836,33.797 L52.836,30.318 L52.346,30.318 L52.346,33.797 L51.821,33.797 L51.821,34.294 L55.72,34.294 L55.72,33.797 L54.18,33.797 Z M58.758,31.34 C58.758,31.753 59.087,32.082 59.5,32.082 C59.913,32.082 60.242,31.753 60.242,31.34 C60.242,30.927 59.913,30.598 59.5,30.598 C59.087,30.598 58.758,30.927 58.758,31.34 L58.758,31.34 Z M65.226,32.299 L65.226,31.48 L65.856,31.48 L65.856,32.299 L65.226,32.299 Z M64.218,31.48 L64.848,31.48 L64.848,32.299 L64.204,32.299 C64.218,32.11 64.218,31.921 64.218,31.753 L64.218,31.48 Z M65.268,29.177 C65.184,29.422 65.065,29.695 64.96,29.905 L64.155,29.905 C64.281,29.681 64.4,29.436 64.505,29.177 L65.268,29.177 Z M65.226,30.318 L65.856,30.318 L65.856,31.088 L65.226,31.088 L65.226,30.318 Z M64.218,30.318 L64.848,30.318 L64.848,31.088 L64.218,31.088 L64.218,30.318 Z M69.041,28.939 C68.999,29.751 68.936,30.073 68.859,30.164 C68.81,30.227 68.754,30.234 68.663,30.227 C68.565,30.227 68.306,30.227 68.033,30.199 C68.096,30.318 68.138,30.5 68.152,30.633 C68.439,30.647 68.726,30.654 68.873,30.64 C69.055,30.626 69.16,30.577 69.251,30.465 C69.405,30.297 69.461,29.849 69.517,28.694 C69.524,28.631 69.524,28.498 69.524,28.498 L66.5,28.498 L66.5,28.939 L67.445,28.939 C67.312,29.597 67.032,30.15 66.297,30.472 L66.297,29.905 L65.422,29.905 C65.583,29.604 65.744,29.247 65.863,28.939 L65.555,28.743 L65.478,28.764 L64.659,28.764 C64.715,28.596 64.771,28.421 64.82,28.246 L64.337,28.141 C64.127,28.995 63.742,29.821 63.245,30.353 C63.357,30.423 63.56,30.584 63.637,30.668 C63.686,30.612 63.735,30.549 63.784,30.486 L63.784,31.753 C63.784,32.537 63.735,33.573 63.266,34.308 C63.371,34.357 63.567,34.469 63.637,34.546 C63.966,34.042 64.113,33.356 64.176,32.705 L65.856,32.705 L65.856,33.965 C65.856,34.056 65.821,34.084 65.723,34.091 C65.632,34.098 65.317,34.098 64.953,34.084 C65.023,34.203 65.1,34.406 65.121,34.525 C65.604,34.525 65.884,34.518 66.059,34.441 C66.241,34.364 66.297,34.217 66.297,33.965 L66.297,30.479 C66.395,30.563 66.521,30.717 66.577,30.829 C67.438,30.437 67.774,29.765 67.921,28.939 L69.041,28.939 Z M69.713,32.74 L68.383,32.74 L68.383,31.879 L69.594,31.879 L69.594,31.431 L68.383,31.431 L68.383,30.717 L67.886,30.717 L67.886,31.431 L67.277,31.431 C67.333,31.249 67.382,31.06 67.424,30.871 L66.983,30.78 C66.857,31.375 66.647,31.949 66.339,32.348 C66.458,32.404 66.661,32.502 66.745,32.565 C66.878,32.376 67.004,32.138 67.109,31.879 L67.886,31.879 L67.886,32.74 L66.416,32.74 L66.416,33.188 L67.886,33.188 L67.886,34.497 L68.383,34.497 L68.383,33.188 L69.713,33.188 L69.713,32.74 Z M72.94,31.942 C72.793,31.753 72.177,30.99 71.96,30.745 L71.96,30.129 L72.919,30.129 L72.919,29.639 L71.96,29.639 L71.96,28.141 L71.47,28.141 L71.47,29.639 L70.385,29.639 L70.385,30.129 L71.4,30.129 C71.169,31.088 70.693,32.18 70.224,32.761 C70.308,32.887 70.441,33.09 70.497,33.23 C70.854,32.761 71.204,31.984 71.47,31.186 L71.47,34.525 L71.96,34.525 L71.96,31.361 C72.205,31.704 72.492,32.131 72.618,32.362 L72.94,31.942 Z M76.713,30.521 L73.899,30.521 L73.899,29.282 C74.774,29.128 75.726,28.904 76.398,28.624 L75.957,28.225 C75.453,28.449 74.627,28.68 73.836,28.841 L73.395,28.708 L73.395,30.675 C73.395,31.718 73.318,33.125 72.534,34.161 C72.653,34.231 72.856,34.399 72.926,34.504 C73.696,33.482 73.871,32.089 73.892,31.018 L75.159,31.018 L75.159,34.532 L75.677,34.532 L75.677,31.018 L76.713,31.018 L76.713,30.521 Z M78.078,29.765 L82.957,29.765 L82.957,30.85 L83.461,30.85 L83.461,29.303 L82.376,29.303 C82.614,29.023 82.873,28.687 83.09,28.372 L82.551,28.19 C82.376,28.519 82.068,28.981 81.802,29.303 L80.563,29.303 L80.864,29.184 C80.773,28.89 80.535,28.442 80.297,28.113 L79.849,28.281 C80.059,28.589 80.276,29.009 80.36,29.303 L78.932,29.303 L79.17,29.184 C79.044,28.918 78.757,28.519 78.498,28.232 L78.064,28.428 C78.274,28.687 78.519,29.044 78.652,29.303 L77.581,29.303 L77.581,30.85 L78.078,30.85 L78.078,29.765 Z M83.587,32.068 L80.766,32.068 L80.766,31.893 C81.382,31.599 82.033,31.158 82.467,30.71 L82.131,30.458 L82.026,30.486 L78.61,30.486 L78.61,30.948 L81.501,30.948 C81.214,31.172 80.857,31.396 80.514,31.564 L80.248,31.564 L80.248,32.068 L77.448,32.068 L77.448,32.551 L80.248,32.551 L80.248,33.902 C80.248,34.007 80.213,34.042 80.066,34.049 C79.933,34.056 79.457,34.056 78.925,34.042 C79.002,34.175 79.107,34.392 79.142,34.539 C79.779,34.539 80.178,34.532 80.43,34.455 C80.682,34.378 80.766,34.224 80.766,33.916 L80.766,32.551 L83.587,32.551 L83.587,32.068 Z M86.24,33.188 L85.295,33.188 L85.295,31.123 L86.24,31.123 L86.24,33.188 Z M84.378,29.002 L85.253,29.002 C85.064,30.066 84.742,31.046 84.252,31.704 C84.336,31.844 84.455,32.138 84.483,32.257 C84.623,32.089 84.735,31.893 84.854,31.69 L84.854,34.217 L85.295,34.217 L85.295,33.657 L86.702,33.657 L86.702,30.661 L85.309,30.661 C85.484,30.143 85.631,29.576 85.743,29.002 L86.828,29.002 L86.828,28.526 L84.378,28.526 L84.378,29.002 Z M88.277,31.025 L88.277,29.016 L89.411,29.016 L89.411,31.025 L88.277,31.025 Z M90.699,31.025 L89.908,31.025 L89.908,29.016 L90.559,29.016 L90.559,28.526 L87.206,28.526 L87.206,29.016 L87.78,29.016 L87.78,31.025 L87.01,31.025 L87.01,31.522 L87.773,31.522 C87.752,32.46 87.598,33.517 86.884,34.266 C87.003,34.329 87.192,34.476 87.276,34.567 C88.067,33.748 88.249,32.586 88.27,31.522 L89.411,31.522 L89.411,34.532 L89.908,34.532 L89.908,31.522 L90.699,31.522 L90.699,31.025 Z M95.011,29.261 L95.011,30.493 C95.011,31.004 95.151,31.144 95.76,31.144 L96.74,31.144 C97.195,31.144 97.342,30.983 97.398,30.346 C97.251,30.311 97.048,30.234 96.936,30.15 C96.922,30.612 96.88,30.682 96.691,30.682 L95.816,30.682 C95.564,30.682 95.522,30.654 95.522,30.486 L95.522,29.261 L96.957,29.261 L96.957,29.982 L97.496,29.982 L97.496,28.785 L94.766,28.785 L94.766,28.141 L94.241,28.141 L94.241,28.785 L91.567,28.785 L91.567,30.038 L92.078,30.038 L92.078,29.261 L93.387,29.261 C93.261,30.192 92.897,30.71 91.462,30.983 C91.56,31.074 91.686,31.277 91.728,31.396 C93.331,31.06 93.772,30.409 93.933,29.261 L95.011,29.261 Z M96.383,33.986 C96.187,33.986 96.159,33.958 96.159,33.769 L96.159,31.802 L94.325,31.802 L94.325,31.788 L94.325,30.948 L93.807,30.948 L93.807,31.774 L93.807,31.802 L91.805,31.802 L91.805,32.285 L93.751,32.285 C93.604,32.936 93.065,33.65 91.329,34.126 C91.455,34.245 91.602,34.427 91.679,34.553 C93.618,34 94.164,33.118 94.29,32.285 L95.62,32.285 L95.62,33.769 C95.62,34.343 95.774,34.49 96.306,34.49 L97.034,34.49 C97.517,34.49 97.664,34.224 97.713,33.167 C97.566,33.125 97.335,33.041 97.223,32.943 C97.202,33.853 97.167,33.986 96.978,33.986 L96.383,33.986 Z M99.015,29.149 L103.985,29.149 L103.985,29.954 L104.503,29.954 L104.503,28.666 L101.745,28.666 L101.745,28.148 L101.22,28.148 L101.22,28.666 L98.518,28.666 L98.518,29.954 L99.015,29.954 L99.015,29.149 Z M101.745,33.867 L101.745,32.992 L103.985,32.992 L103.985,32.53 L101.745,32.53 L101.745,31.725 C102.319,31.711 102.914,31.69 103.495,31.669 C103.663,31.823 103.803,31.97 103.908,32.096 L104.3,31.802 C103.971,31.396 103.264,30.829 102.676,30.458 L102.305,30.717 C102.529,30.871 102.774,31.053 103.005,31.242 C102.13,31.27 101.248,31.291 100.464,31.312 C100.681,31.004 100.912,30.64 101.108,30.311 L103.824,30.311 L103.824,29.849 L99.225,29.849 L99.225,30.311 L100.513,30.311 C100.345,30.64 100.121,31.025 99.918,31.326 C99.561,31.333 99.232,31.333 98.945,31.34 L98.973,31.816 C99.589,31.795 100.373,31.774 101.22,31.746 L101.22,32.53 L99.071,32.53 L99.071,32.992 L101.22,32.992 L101.22,33.867 L98.434,33.867 L98.434,34.336 L104.594,34.336 L104.594,33.867 L101.745,33.867 Z" id="ソフトウェア検証・解析学研究室"></path>
                    <path d="M4.361,4.789 L4.361,5.503 L2.639,5.503 L2.639,4.789 L4.361,4.789 Z M4.823,5.888 L4.823,4.411 L2.177,4.411 L2.177,6.238 L2.639,6.238 L2.639,5.888 L4.823,5.888 Z M6.251,3.522 L0.791,3.522 L0.791,6.532 L1.288,6.532 L1.288,3.963 L5.733,3.963 L5.733,5.902 C5.733,6 5.712,6.035 5.593,6.035 C5.467,6.049 5.075,6.049 4.627,6.035 C4.697,6.168 4.767,6.378 4.795,6.518 C5.376,6.518 5.74,6.518 5.971,6.441 C6.188,6.35 6.251,6.196 6.251,5.916 L6.251,3.522 Z M4.858,2.703 L2.128,2.703 L2.128,2.024 L4.858,2.024 L4.858,2.703 Z M1.631,1.653 L1.631,3.081 L5.376,3.081 L5.376,1.653 L1.631,1.653 Z M3.724,0.806 L3.724,0.141 L3.199,0.141 L3.199,0.806 L0.483,0.806 L0.483,1.261 L6.517,1.261 L6.517,0.806 L3.724,0.806 Z M9.296,1.562 L10.402,1.562 L10.402,1.079 L8.407,1.079 C8.491,0.813 8.568,0.533 8.624,0.239 L8.12,0.141 C7.952,0.988 7.665,1.821 7.252,2.36 C7.371,2.43 7.588,2.57 7.679,2.661 C7.896,2.36 8.078,1.982 8.246,1.562 L8.778,1.562 L8.778,2.71 L8.778,2.955 L7.336,2.955 L7.336,3.452 L8.743,3.452 C8.652,4.369 8.323,5.377 7.259,6.133 C7.371,6.21 7.553,6.406 7.623,6.518 C8.421,5.951 8.848,5.195 9.072,4.453 C9.45,4.88 9.996,5.538 10.234,5.881 L10.584,5.44 C10.367,5.195 9.52,4.25 9.191,3.921 C9.219,3.767 9.247,3.606 9.261,3.452 L10.605,3.452 L10.605,2.955 L9.289,2.955 C9.296,2.871 9.296,2.787 9.296,2.717 L9.296,1.562 Z M11.333,5.293 L11.333,1.24 L12.81,1.24 L12.81,5.293 L11.333,5.293 Z M10.829,0.75 L10.829,6.336 L11.333,6.336 L11.333,5.783 L12.81,5.783 L12.81,6.266 L13.328,6.266 L13.328,0.75 L10.829,0.75 Z M17.766,5.482 L17.766,1.464 L20.279,1.464 L20.279,0.932 L14.749,0.932 L14.749,1.464 L17.199,1.464 L17.199,5.482 L14.385,5.482 L14.385,6 L20.629,6 L20.629,5.482 L17.766,5.482 Z M25.991,1.583 C25.76,1.289 25.27,0.89 24.85,0.624 L24.521,0.925 C24.934,1.212 25.417,1.625 25.634,1.919 L25.991,1.583 Z M25.823,3.424 C25.564,3.123 25.018,2.71 24.57,2.437 L24.248,2.745 C24.689,3.025 25.228,3.459 25.48,3.767 L25.823,3.424 Z M23.982,3.921 C23.835,3.732 23.233,2.962 23.016,2.717 L23.016,2.591 L24.045,2.591 L24.045,2.101 L23.016,2.101 L23.016,0.932 C23.352,0.855 23.674,0.757 23.933,0.652 L23.618,0.239 C23.093,0.47 22.176,0.673 21.392,0.799 C21.448,0.911 21.518,1.093 21.546,1.205 C21.854,1.163 22.183,1.107 22.505,1.044 L22.505,2.101 L21.329,2.101 L21.329,2.591 L22.435,2.591 C22.162,3.396 21.672,4.292 21.231,4.789 C21.315,4.908 21.441,5.118 21.49,5.258 C21.854,4.824 22.218,4.131 22.505,3.431 L22.505,6.525 L23.016,6.525 L23.016,3.284 C23.254,3.641 23.548,4.096 23.667,4.327 L23.982,3.921 Z M27.727,4.551 L27.65,4.075 L26.831,4.201 L26.831,0.141 L26.32,0.141 L26.32,4.285 L23.954,4.663 L24.038,5.16 L26.32,4.782 L26.32,6.525 L26.831,6.525 L26.831,4.698 L27.727,4.551 Z M34.573,2.675 L34.573,2.143 L31.682,2.143 C31.78,1.408 31.787,0.715 31.794,0.155 L31.234,0.155 C31.227,0.708 31.234,1.408 31.129,2.143 L28.462,2.143 L28.462,2.675 L31.045,2.675 C30.758,3.998 30.058,5.342 28.322,6.098 C28.469,6.203 28.637,6.385 28.714,6.525 C30.415,5.748 31.171,4.404 31.507,3.06 C32.06,4.649 32.949,5.888 34.293,6.525 C34.384,6.371 34.559,6.154 34.685,6.035 C33.334,5.482 32.424,4.215 31.934,2.675 L34.573,2.675 Z M36.078,1.765 L40.957,1.765 L40.957,2.85 L41.461,2.85 L41.461,1.303 L40.376,1.303 C40.614,1.023 40.873,0.687 41.09,0.372 L40.551,0.19 C40.376,0.519 40.068,0.981 39.802,1.303 L38.563,1.303 L38.864,1.184 C38.773,0.89 38.535,0.442 38.297,0.113 L37.849,0.281 C38.059,0.589 38.276,1.009 38.36,1.303 L36.932,1.303 L37.17,1.184 C37.044,0.918 36.757,0.519 36.498,0.232 L36.064,0.428 C36.274,0.687 36.519,1.044 36.652,1.303 L35.581,1.303 L35.581,2.85 L36.078,2.85 L36.078,1.765 Z M41.587,4.068 L38.766,4.068 L38.766,3.893 C39.382,3.599 40.033,3.158 40.467,2.71 L40.131,2.458 L40.026,2.486 L36.61,2.486 L36.61,2.948 L39.501,2.948 C39.214,3.172 38.857,3.396 38.514,3.564 L38.248,3.564 L38.248,4.068 L35.448,4.068 L35.448,4.551 L38.248,4.551 L38.248,5.902 C38.248,6.007 38.213,6.042 38.066,6.049 C37.933,6.056 37.457,6.056 36.925,6.042 C37.002,6.175 37.107,6.392 37.142,6.539 C37.779,6.539 38.178,6.532 38.43,6.455 C38.682,6.378 38.766,6.224 38.766,5.916 L38.766,4.551 L41.587,4.551 L41.587,4.068 Z" id="高知工科大学"></path>
                </g>
            </g>
        </g>
    </g>
</svg>